<svg xmlns="http://www.w3.org/2000/svg" width="640" height="360" viewBox="0 0 640 360" fill="none"><rect width="640" height="360" fill="#F8FAFC"/><path d="M96 72H64v32M544 72h32v32M96 288H64v-32M544 288h32v-32" stroke="#E5E7EB" stroke-width="8" stroke-linecap="round"/><path d="M228 145h46l14-22h72l14 22h38c22 0 40 18 40 40v66c0 22-18 40-40 40H228c-22 0-40-18-40-40v-66c0-22 18-40 40-40Z" stroke="#E5E7EB" stroke-width="10" stroke-linejoin="round"/><circle cx="320" cy="218" r="48" stroke="#E5E7EB" stroke-width="10"/><circle cx="320" cy="218" r="7" fill="#1276B1"/></svg>
